<svg width="40" height="40" viewBox="0 0 32 35" fill="none" xmlns="http://www.w3.org/2000/svg">
<path d="M28.1371 19.2928C28.1366 19.4181 28.1787 19.5398 28.2566 19.638L29.9096 21.7205C30.2087 22.0948 30.3879 22.5506 30.4239 23.0283C30.4598 23.506 30.3508 23.9835 30.1111 24.3983L29.1417 26.0758C28.9027 26.491 28.5438 26.8244 28.1123 27.0323C27.6808 27.2405 27.1965 27.3137 26.7228 27.242L24.0893 26.8415C23.9648 26.8241 23.8379 26.8482 23.7286 26.9101L20.6082 28.7116C20.4997 28.7753 20.4156 28.8735 20.3691 28.9904L19.3976 31.4691C19.2237 31.9145 18.9194 32.2974 18.5247 32.5673C18.1299 32.8373 17.6629 32.9823 17.1846 32.9828H15.2459C14.7676 32.9823 14.3006 32.8373 13.9058 32.5673C13.5111 32.2974 13.2069 31.9145 13.0329 31.4691L12.0614 28.9904C12.0149 28.8735 11.9308 28.7753 11.8223 28.7116L8.70194 26.9101C8.59258 26.8479 8.46572 26.8239 8.3412 26.8415L5.70766 27.242C5.23395 27.3137 4.7497 27.2405 4.31815 27.0323C3.88662 26.8244 3.52789 26.491 3.2888 26.0758L2.31949 24.3983C2.07978 23.9835 1.97077 23.506 2.00671 23.0283C2.04263 22.5506 2.22183 22.0948 2.52088 21.7205L4.18289 19.638C4.26064 19.5398 4.30278 19.4181 4.30238 19.2928V15.6899C4.30278 15.5647 4.26064 15.4429 4.18289 15.3447L2.52088 13.2622C2.22183 12.8879 2.04263 12.4322 2.00671 11.9544C1.97077 11.4767 2.07978 10.9993 2.31949 10.5844L3.2888 8.90695C3.52789 8.49178 3.88662 8.15838 4.31815 7.9503C4.7497 7.74225 5.23395 7.66918 5.70766 7.74066L8.33458 8.14123C8.45908 8.15888 8.58594 8.13473 8.69529 8.07262L11.8223 6.26234C11.9308 6.19851 12.0149 6.10041 12.0614 5.98349L13.0373 3.51372C13.2113 3.06819 13.5155 2.68544 13.9103 2.4154C14.3051 2.14538 14.7721 2.00061 15.2504 2H17.1934C17.6717 2.00061 18.1387 2.14538 18.5335 2.4154C18.9283 2.68544 19.2325 3.06819 19.4065 3.51372L20.378 5.98349C20.4228 6.10368 20.5071 6.20513 20.617 6.27118L23.7375 8.07262C23.8469 8.13459 23.9738 8.1587 24.0982 8.14123L26.7317 7.74066C27.2054 7.66918 27.6897 7.74225 28.1212 7.9503C28.5528 8.15838 28.9114 8.49178 29.1506 8.90695L30.12 10.5844C30.3597 10.9993 30.4685 11.4767 30.4325 11.9544C30.3966 12.4322 30.2174 12.8879 29.9185 13.2622L28.2566 15.3447C28.1787 15.4429 28.1366 15.5647 28.1371 15.6899V19.2928Z" stroke="white" stroke-width="2.71"/>
<path d="M12.9063 21.5328V13.7361C12.9063 12.8669 13.7798 12.267 14.578 12.6111C17.4192 13.8359 19.1599 15.0229 21.3242 16.9072C21.8554 17.3696 21.8799 18.1872 21.3698 18.6728C18.9938 20.9347 17.1591 21.9882 14.3847 22.7104C13.6263 22.9078 12.9063 22.3164 12.9063 21.5328Z" stroke="white" stroke-width="2.71" stroke-linecap="round" stroke-linejoin="round"/>
</svg>
